<svg xmlns="http://www.w3.org/2000/svg" xmlns:xlink="http://www.w3.org/1999/xlink" viewBox="0,0,256,256" width="50px" height="50px"><g fill="none" fill-rule="nonzero" stroke="none" stroke-width="none" stroke-linecap="none" stroke-linejoin="none" stroke-miterlimit="10" stroke-dasharray="" stroke-dashoffset="0" font-family="none" font-weight="none" font-size="none" text-anchor="none" style="mix-blend-mode: normal"><g transform="scale(5.12,5.12)"><circle cx="18.458" cy="28.458" r="1.458" fill="#98467e" stroke="none" stroke-width="1" stroke-linecap="butt" stroke-linejoin="miter"></circle><circle cx="31.458" cy="28.458" r="1.458" fill="#98467e" stroke="none" stroke-width="1" stroke-linecap="butt" stroke-linejoin="miter"></circle><path d="M11,36c-3,-1 -4,-4 -4,-5c0,-2 1,-3 4,-3v4z" fill="none" stroke="#98467e" stroke-width="2" stroke-linecap="round" stroke-linejoin="round"></path><path d="M11,21v15.377c0,3.679 4.503,8.041 12.654,10.288c0.88,0.243 1.813,0.242 2.694,-0.001c8.15,-2.25 12.652,-6.645 12.652,-10.287v-15.377c-10.132,0 -17.868,0 -28,0z" fill="none" stroke="#98467e" stroke-width="2" stroke-linecap="round" stroke-linejoin="round"></path><circle cx="18" cy="28" r="4" fill="none" stroke="#98467e" stroke-width="2" stroke-linecap="round" stroke-linejoin="round"></circle><circle cx="32" cy="28" r="4" fill="none" stroke="#98467e" stroke-width="2" stroke-linecap="round" stroke-linejoin="round"></circle><path d="M15,36c1.314,3.474 5.293,6 10,6c4.707,0 8.686,-2.526 10,-6z" fill="none" stroke="#98467e" stroke-width="2" stroke-linecap="round" stroke-linejoin="round"></path><path d="M33.125,4h-16.25c-4.349,0 -7.875,3.526 -7.875,7.875v9.125h32v-9.125c0,-4.349 -3.526,-7.875 -7.875,-7.875z" fill="none" stroke="#98467e" stroke-width="2" stroke-linecap="round" stroke-linejoin="round"></path><rect x="9" y="13" width="32" height="8" fill="none" stroke="#98467e" stroke-width="2" stroke-linecap="round" stroke-linejoin="round"></rect><path d="M1,21h48" fill="none" stroke="#98467e" stroke-width="2" stroke-linecap="round" stroke-linejoin="round"></path><path d="M8,21l-4,4h4l-3,6l2,-1" fill="none" stroke="#98467e" stroke-width="2" stroke-linecap="round" stroke-linejoin="round"></path><path d="M39,32v-4c3,0 4,1 4,3c0,1 -1,4 -4,5z" fill="none" stroke="#98467e" stroke-width="2" stroke-linecap="round" stroke-linejoin="round"></path><path d="M42,21l4,4h-4l3,6l-2,-1" fill="none" stroke="#98467e" stroke-width="2" stroke-linecap="round" stroke-linejoin="round"></path><path d="M24,32h2" fill="none" stroke="#98467e" stroke-width="2" stroke-linecap="round" stroke-linejoin="round"></path></g></g></svg>